Coordinates
version=1
nRows=19
nColumns=63
inDegrees=yes

Units are S.I. units (second, meters, Newtons, ...)
If the header above contains a line with 'inDegrees', this indicates whether rotational values are in degrees (yes) or radians (no).

endheader
time	pelvis_tilt	pelvis_list	pelvis_rotation	pelvis_tx	pelvis_ty	pelvis_tz	hip_flexion_r	hip_adduction_r	hip_rotation_r	knee_angle_r	knee_angle_r_beta	ankle_angle_r	subtalar_angle_r	mtp_angle_r	hip_flexion_l	hip_adduction_l	hip_rotation_l	knee_angle_l	knee_angle_l_beta	ankle_angle_l	subtalar_angle_l	mtp_angle_l	L5_S1_Flex_Ext	L5_S1_Lat_Bending	L5_S1_axial_rotation	L4_L5_Flex_Ext	L4_L5_Lat_Bending	L4_L5_axial_rotation	L3_L4_Flex_Ext	L3_L4_Lat_Bending	L3_L4_axial_rotation	L2_L3_Flex_Ext	L2_L3_Lat_Bending	L2_L3_axial_rotation	L1_L2_Flex_Ext	L1_L2_Lat_Bending	L1_L2_axial_rotation	L1_T12_Flex_Ext	L1_T12_Lat_Bending	L1_T12_axial_rotation	Abs_r3	Abs_r2	Abs_r1	Abs_t1	Abs_t2	neck_flexion	neck_bending	neck_rotation	arm_flex_r	arm_add_r	arm_rot_r	elbow_flex_r	pro_sup_r	wrist_flex_r	wrist_dev_r	arm_flex_l	arm_add_l	arm_rot_l	elbow_flex_l	pro_sup_l	wrist_flex_l	wrist_dev_l
3.616667	4.352433	-27.787560	104.207055	0.151461	0.204790	1.144653	69.961234	-2.511362	-0.229019	74.752758	1.304682	64.526705	-8.853096	0.000000	77.793413	9.731276	7.374791	80.604260	1.406810	59.640524	1.161282	0.000000	-0.197554	-0.376947	0.490056	-0.366877	-0.501340	0.520685	-0.324561	-0.916509	0.520685	-0.225784	-0.916509	0.428799	-0.183448	-0.768671	0.398171	-0.112882	-0.583891	0.367542	-1.411105	-4.264102	2.725546	0.000000	0.000000	22.407735	-0.409870	-8.279031	78.200567	-16.280125	-22.551845	140.729147	89.214458	-17.586714	-15.242341	66.783440	4.147590	-15.382028	149.696077	83.942976	-6.445715	2.502070
3.633333	3.488848	-27.780450	103.593363	0.152050	0.206163	1.143993	69.836936	-2.656984	0.406460	74.639675	1.302708	64.501102	-8.897855	0.000000	77.488127	9.804663	6.704866	80.282831	1.401200	59.646455	1.200187	0.000000	-0.202355	-0.474866	0.452235	-0.375793	-0.631572	0.480500	-0.332448	-1.154589	0.480500	-0.231271	-1.154589	0.395706	-0.187907	-0.968347	0.367441	-0.115625	-0.735567	0.339176	-1.445399	-5.371778	2.515197	0.000000	0.000000	22.412337	-0.301528	-8.721045	77.208779	-16.031265	-24.988500	141.626597	89.200455	-19.096114	-17.618865	67.542564	3.621594	-14.607276	149.694452	83.568327	-9.722265	3.481800
3.650000	2.432647	-27.830118	102.799061	0.152954	0.207278	1.143395	69.799460	-2.776778	1.236557	74.578006	1.301632	64.435395	-8.976844	0.000000	77.211476	9.826914	5.844035	79.941197	1.395237	59.642921	1.261260	0.000000	-0.202736	-0.601566	0.423851	-0.376502	-0.800083	0.450342	-0.333076	-1.462648	0.450342	-0.231707	-1.462648	0.370870	-0.188261	-1.226713	0.344379	-0.115844	-0.931826	0.317888	-1.448126	-6.805035	2.357334	0.000000	0.000000	22.575194	0.165312	-9.316179	75.907523	-15.823985	-28.192506	142.734720	89.186028	-19.592697	-18.558614	68.288477	3.050482	-13.506311	149.697897	83.557485	-13.484518	3.928753
3.666667	1.190963	-27.915340	101.824985	0.154186	0.208135	1.142898	69.848654	-2.864720	2.252898	74.571362	1.301516	64.347927	-9.044102	0.000000	76.963393	9.800305	4.806575	79.579370	1.388922	59.639098	1.338437	0.000000	-0.198720	-0.752266	0.403930	-0.369043	-1.000514	0.429176	-0.326477	-1.829059	0.429176	-0.227117	-1.829059	0.353439	-0.184531	-1.534021	0.328193	-0.113549	-1.165260	0.302948	-1.419436	-8.509782	2.246538	0.000000	0.000000	22.871878	0.997899	-9.907446	74.350586	-15.584186	-31.850575	144.018708	89.176649	-19.476039	-18.363364	68.975258	2.506805	-12.545457	149.706087	83.949122	-16.633202	3.786942
3.683333	-0.148767	-28.030182	100.731534	0.155575	0.208695	1.142547	69.979159	-2.918318	3.387143	74.623819	1.302431	64.258630	-9.063066	0.000000	76.763326	9.737297	3.670880	79.234546	1.382904	59.636828	1.387913	0.000000	-0.191216	-0.912334	0.388348	-0.355107	-1.213404	0.412620	-0.314149	-2.218249	0.412620	-0.218541	-2.218249	0.339805	-0.177563	-1.860432	0.315533	-0.109261	-1.413206	0.291261	-1.365836	-10.320507	2.159878	0.000000	0.000000	23.278784	2.159256	-10.349690	72.598816	-15.315409	-35.703412	145.435260	89.170443	-19.049283	-17.126842	69.503906	2.037712	-11.862352	149.719045	84.602055	-18.846726	2.791138
3.700000	-1.532202	-28.158108	99.551340	0.157011	0.208988	1.142388	70.179610	-2.934414	4.591170	74.727683	1.304244	64.179969	-9.016901	0.000000	76.614080	9.643446	2.488534	78.915906	1.377342	59.635255	1.386585	0.000000	-0.182188	-1.070386	0.378412	-0.338341	-1.423613	0.402063	-0.299316	-2.602536	0.402063	-0.208222	-2.602536	0.331111	-0.169179	-2.182731	0.307460	-0.104102	-1.658028	0.283809	-1.301348	-12.108420	2.104614	0.000000	0.000000	23.771040	3.559668	-10.533322	70.730080	-14.985534	-39.568233	146.894515	89.163958	-18.417694	-15.085793	69.844392	1.690407	-11.749507	149.737170	84.935696	-19.388527	1.314197
3.716667	-2.884493	-28.278424	98.308670	0.158408	0.209047	1.142438	70.426450	-2.881833	5.809985	74.872209	1.306767	64.115414	-8.901831	0.000000	76.514865	9.496120	1.319596	78.652562	1.372746	59.634697	1.316022	0.000000	-0.174575	-1.214935	0.382483	-0.324203	-1.615863	0.406388	-0.286809	-2.953993	0.406388	-0.199521	-2.953993	0.334672	-0.162110	-2.477495	0.310767	-0.099752	-1.881934	0.286862	-1.246970	-13.743587	2.127255	0.000000	0.000000	24.317643	5.016087	-10.541228	68.790628	-14.584364	-43.325739	148.254950	89.154794	-17.656986	-12.763685	69.969468	1.530906	-12.337009	149.761085	84.802430	-18.095656	-0.460320
3.733333	-4.242701	-28.382981	96.991526	0.159799	0.209026	1.142609	70.693251	-2.773130	7.077090	75.030675	1.309532	64.077821	-8.732915	0.000000	76.437233	9.305154	0.135432	78.410041	1.368513	59.634982	1.188045	0.000000	-0.169643	-1.348225	0.402300	-0.315044	-1.793139	0.427444	-0.278707	-3.278073	0.427444	-0.193885	-3.278073	0.352013	-0.157531	-2.749299	0.326869	-0.096934	-2.088400	0.301725	-1.211744	-15.251385	2.237473	0.000000	0.000000	24.890449	6.457448	-10.397611	66.751066	-14.068192	-46.662409	149.354922	89.141274	-17.387973	-11.181877	69.867660	1.539512	-13.822747	149.790085	84.215597	-14.931700	-2.270825
3.750000	-5.562494	-28.459782	95.636948	0.161117	0.208999	1.142868	70.956082	-2.609498	8.346798	75.193364	1.312372	64.059128	-8.528366	0.000000	76.371118	9.071281	-1.025583	78.191956	1.364707	59.636462	1.023947	0.000000	-0.168862	-1.466169	0.439225	-0.313593	-1.950004	0.466677	-0.277423	-3.564842	0.466677	-0.192992	-3.564842	0.384322	-0.156805	-2.989811	0.356870	-0.096487	-2.271095	0.329419	-1.206161	-16.585592	2.442839	0.000000	0.000000	25.445099	7.706269	-10.309322	64.646758	-13.366492	-49.590999	150.087061	89.124939	-17.359999	-10.597562	69.510482	1.704793	-16.009560	149.823464	82.891512	-10.096137	-3.918996
3.766667	-6.764904	-28.496283	94.294345	0.162197	0.209007	1.143208	71.187936	-2.394105	9.537960	75.342493	1.314975	64.041038	-8.295146	0.000000	76.314627	8.803974	-2.084520	78.015512	1.361628	59.637611	0.818486	0.000000	-0.172704	-1.559290	0.491763	-0.320729	-2.073855	0.522498	-0.283736	-3.791257	0.522498	-0.197384	-3.791257	0.430293	-0.160373	-3.179703	0.399558	-0.098683	-2.415340	0.368822	-1.233608	-17.638995	2.735039	0.000000	0.000000	25.980233	8.613477	-10.340948	62.523326	-12.472185	-51.996994	150.452160	89.128370	-17.810908	-10.750086	68.804863	1.946245	-18.478469	149.861481	81.070959	-4.585018	-5.809701
3.783333	-7.797968	-28.509556	93.015188	0.162952	0.209044	1.143536	71.384982	-2.140077	10.593056	75.468637	1.317176	64.016830	-8.038408	0.000000	76.283984	8.516967	-2.993448	77.894649	1.359518	59.638993	0.575264	0.000000	-0.176446	-1.624216	0.568063	-0.327677	-2.160207	0.603567	-0.289883	-3.949118	0.603567	-0.201660	-3.949118	0.497055	-0.163847	-3.312101	0.461551	-0.100821	-2.515910	0.426047	-1.260334	-18.373454	3.159395	0.000000	0.000000	26.472915	9.031735	-10.710878	60.304972	-11.376628	-54.083015	150.664982	89.160313	-18.227555	-10.734944	67.709646	2.232790	-20.784524	149.928916	79.054690	0.624553	-7.973697
3.800000	-8.566235	-28.567134	91.886536	0.163166	0.209012	1.143685	71.587776	-1.871987	11.413824	75.564732	1.318853	63.988541	-7.752223	0.000000	76.341438	8.247247	-3.653617	77.851091	1.358758	59.641662	0.279409	0.000000	-0.167117	-1.646390	0.645449	-0.310352	-2.189699	0.685789	-0.274556	-4.003034	0.685789	-0.190998	-4.003034	0.564768	-0.155184	-3.357319	0.524427	-0.095490	-2.550259	0.484087	-1.193697	-18.624297	3.589792	0.000000	0.000000	26.901638	9.008952	-11.065253	57.925925	-10.114763	-55.575559	150.886807	89.236625	-18.794215	-10.109786	66.110904	2.501450	-22.844342	150.226638	77.050104	4.940043	-9.814113
3.816667	-9.014528	-28.679533	90.922204	0.162781	0.208893	1.143619	71.798804	-1.569548	11.953490	75.622069	1.319854	63.942774	-7.432694	0.000000	76.498960	7.973804	-4.021840	77.908162	1.359754	59.646939	-0.086097	0.000000	-0.142447	-1.617715	0.719362	-0.264539	-2.151561	0.764322	-0.234027	-3.933312	0.764322	-0.162803	-3.933312	0.629442	-0.132277	-3.298844	0.584482	-0.081394	-2.505840	0.539522	-1.017487	-18.299914	4.000876	0.000000	0.000000	27.253808	8.673975	-11.106091	55.323322	-8.763256	-56.309669	151.097439	89.325777	-19.494760	-9.117815	64.021384	2.741582	-24.511069	150.644969	75.273869	8.164778	-11.354808
3.833333	-9.139428	-28.847959	90.138439	0.161834	0.208717	1.143359	72.016685	-1.246820	12.196558	75.637353	1.320121	63.884965	-7.070517	0.000000	76.747626	7.701157	-4.093496	78.059811	1.362401	59.655020	-0.508843	0.000000	-0.104532	-1.538254	0.780583	-0.194126	-2.045877	0.829369	-0.171735	-3.740110	0.829369	-0.119469	-3.740110	0.683010	-0.097068	-3.136807	0.634223	-0.059729	-2.382755	0.585437	-0.746660	-17.401032	4.341367	0.000000	0.000000	27.524774	8.162455	-10.620086	52.447289	-7.406278	-56.200796	151.214496	89.374553	-20.151504	-8.120572	61.524204	2.941124	-25.669222	151.006111	73.840263	10.280904	-12.742684
3.850000	-8.973566	-29.074348	89.546739	0.160429	0.208520	1.142940	72.249767	-0.932915	12.160981	75.619545	1.319810	63.831739	-6.658246	0.000000	77.073394	7.442822	-3.899774	78.283268	1.366301	59.665332	-0.969888	0.000000	-0.056364	-1.413709	0.810520	-0.104674	-1.880232	0.861178	-0.092600	-3.437291	0.861178	-0.064418	-3.437291	0.709205	-0.052340	-2.882834	0.658548	-0.032206	-2.189835	0.607890	-0.402603	-15.992154	4.507869	0.000000	0.000000	27.720022	7.632702	-9.471103	49.303604	-6.112322	-55.137776	151.135760	89.364378	-20.721770	-7.342000	58.697615	3.060022	-26.260543	151.169776	72.774473	11.355925	-14.115002
3.866667	-8.569182	-29.353020	89.108956	0.158718	0.208307	1.142427	72.508494	-0.625216	11.892105	75.576036	1.319051	63.787813	-6.194145	0.000000	77.463921	7.181280	-3.492116	78.567832	1.371267	59.677327	-1.446075	0.000000	-0.001544	-1.252216	0.805791	-0.002868	-1.665447	0.856153	-0.002537	-3.044638	0.856153	-0.001765	-3.044638	0.705068	-0.001434	-2.553519	0.654706	-0.000882	-1.939682	0.604344	-0.011032	-14.165316	4.481570	0.000000	0.000000	27.865992	7.150595	-7.710023	45.953355	-4.925181	-53.210939	150.836977	89.337032	-20.813747	-6.411177	55.630555	3.087005	-26.253456	151.005351	72.156188	11.456150	-15.501622
3.883333	-7.929209	-29.640374	88.833139	0.156743	0.208123	1.141944	72.766183	-0.328704	11.378166	75.507841	1.317860	63.758089	-5.683369	0.000000	77.879113	6.905329	-2.882062	78.901296	1.377087	59.690495	-1.895019	0.000000	0.053642	-1.055165	0.753467	0.099618	-1.403370	0.800558	0.088128	-2.565529	0.800558	0.061307	-2.565529	0.659283	0.049812	-2.151693	0.612192	0.030651	-1.634451	0.565100	0.383157	-11.936240	4.190555	0.000000	0.000000	27.957659	6.699095	-5.441448	42.547459	-3.908289	-50.250298	150.142167	89.318085	-20.699976	-5.622205	52.389756	2.973781	-25.687021	150.450978	72.105174	10.738981	-16.735880
3.900000	-7.156684	-29.932436	88.626906	0.154720	0.207974	1.141559	73.043056	-0.029168	10.711229	75.428118	1.316469	63.733917	-5.132311	0.000000	78.305002	6.582013	-2.169489	79.264326	1.383423	59.703355	-2.298326	0.000000	0.106565	-0.838273	0.656936	0.197902	-1.114904	0.697994	0.175075	-2.038178	0.697994	0.121793	-2.038178	0.574819	0.098956	-1.709407	0.533760	0.060891	-1.298485	0.492702	0.761182	-9.482716	3.653679	0.000000	0.000000	28.021328	6.290523	-2.884920	39.233074	-3.023260	-46.512158	148.993505	89.311746	-19.802724	-4.796933	49.103156	2.715756	-24.583364	149.505945	72.518678	9.331707	-17.303192
3.916667	-6.367768	-30.225089	88.416540	0.152864	0.207941	1.141273	73.339416	0.268760	9.991937	75.332032	1.314792	63.705444	-4.553635	0.000000	78.710462	6.199271	-1.460661	79.608765	1.389435	59.714327	-2.618766	0.000000	0.155103	-0.620452	0.522160	0.288042	-0.825201	0.554795	0.254819	-1.508567	0.554795	0.177268	-1.508567	0.456890	0.144029	-1.265226	0.424255	0.088626	-0.961080	0.391620	1.107888	-7.018679	2.904096	0.000000	0.000000	28.064616	5.924682	-0.371677	36.068493	-2.310157	-42.053874	147.394228	89.236317	-18.501923	-4.018382	45.882009	2.292375	-22.872957	148.173973	73.169981	7.319004	-16.940052
